<svg xmlns="http://www.w3.org/2000/svg" viewBox="0 0 1200 720" font-family="-apple-system,Segoe UI,Roboto,sans-serif">
  <rect width="1200" height="720" fill="#0b1120"/>
  <rect x="0" y="0" width="1200" height="68" fill="#0f172a"/>
  <text x="40" y="42" fill="#f8fafc" font-size="20" font-weight="700">💼 Paper Trading · Dummy Money</text>
  <text x="40" y="60" fill="#94a3b8" font-size="12">Live simulation on real NSE/BSE prices · Zero capital at risk</text>

  <!-- Summary cards -->
  <rect x="40" y="92" width="276" height="110" rx="12" fill="#111827" stroke="#1f2937"/>
  <text x="60" y="118" fill="#94a3b8" font-size="11">PORTFOLIO VALUE</text>
  <text x="60" y="152" fill="#f8fafc" font-size="26" font-weight="700">₹ 10,84,320</text>
  <text x="60" y="178" fill="#10b981" font-size="13">▲ ₹ 84,320  (+8.43%)</text>

  <rect x="332" y="92" width="276" height="110" rx="12" fill="#111827" stroke="#1f2937"/>
  <text x="352" y="118" fill="#94a3b8" font-size="11">AVAILABLE CASH</text>
  <text x="352" y="152" fill="#f8fafc" font-size="26" font-weight="700">₹ 3,42,180</text>
  <text x="352" y="178" fill="#94a3b8" font-size="13">31.6% of portfolio</text>

  <rect x="624" y="92" width="276" height="110" rx="12" fill="#111827" stroke="#1f2937"/>
  <text x="644" y="118" fill="#94a3b8" font-size="11">OPEN P&amp;L</text>
  <text x="644" y="152" fill="#10b981" font-size="26" font-weight="700">+ ₹ 42,180</text>
  <text x="644" y="178" fill="#94a3b8" font-size="13">7 positions · 5 winners</text>

  <rect x="916" y="92" width="244" height="110" rx="12" fill="#111827" stroke="#1f2937"/>
  <text x="936" y="118" fill="#94a3b8" font-size="11">AI WIN-RATE (30D)</text>
  <text x="936" y="152" fill="#38bdf8" font-size="26" font-weight="700">68.4%</text>
  <text x="936" y="178" fill="#94a3b8" font-size="13">Hermes signals</text>

  <!-- Equity curve -->
  <rect x="40" y="222" width="760" height="266" rx="12" fill="#111827" stroke="#1f2937"/>
  <text x="60" y="248" fill="#f8fafc" font-size="14" font-weight="700">Equity Curve · 90 days</text>
  <polyline fill="none" stroke="#10b981" stroke-width="2.5"
    points="60,440 120,430 180,420 220,410 280,398 320,406 380,384 420,392 480,360 540,342 600,336 660,316 720,308 780,296 790,290"/>
  <polyline opacity="0.15" fill="#10b981"
    points="60,440 120,430 180,420 220,410 280,398 320,406 380,384 420,392 480,360 540,342 600,336 660,316 720,308 780,296 790,290 790,460 60,460"/>
  <line x1="60" y1="460" x2="790" y2="460" stroke="#1f2937"/>
  <text x="60" y="478" fill="#64748b" font-size="10">01 Jul</text>
  <text x="760" y="478" fill="#64748b" font-size="10">02 Oct</text>

  <!-- Place order -->
  <rect x="820" y="222" width="340" height="266" rx="12" fill="#111827" stroke="#1f2937"/>
  <text x="840" y="248" fill="#f8fafc" font-size="14" font-weight="700">Quick Order</text>
  <text x="840" y="276" fill="#94a3b8" font-size="11">SYMBOL</text>
  <rect x="840" y="282" width="300" height="34" rx="6" fill="#0b1120" stroke="#1f2937"/>
  <text x="854" y="304" fill="#f8fafc" font-size="13">RELIANCE</text>
  <rect x="840" y="330" width="146" height="34" rx="6" fill="#065f46"/>
  <text x="884" y="352" fill="#d1fae5" font-size="13" font-weight="700">BUY</text>
  <rect x="994" y="330" width="146" height="34" rx="6" fill="#0b1120" stroke="#1f2937"/>
  <text x="1052" y="352" fill="#94a3b8" font-size="13">SELL</text>
  <text x="840" y="384" fill="#94a3b8" font-size="11">QTY</text>
  <rect x="840" y="390" width="140" height="34" rx="6" fill="#0b1120" stroke="#1f2937"/>
  <text x="854" y="412" fill="#f8fafc" font-size="13">25</text>
  <text x="1000" y="384" fill="#94a3b8" font-size="11">LIMIT</text>
  <rect x="1000" y="390" width="140" height="34" rx="6" fill="#0b1120" stroke="#1f2937"/>
  <text x="1014" y="412" fill="#f8fafc" font-size="13">2,864.50</text>
  <rect x="840" y="440" width="300" height="38" rx="8" fill="#2563eb"/>
  <text x="950" y="464" fill="#f8fafc" font-size="14" font-weight="700">Place Order</text>

  <!-- Positions -->
  <rect x="40" y="506" width="1120" height="192" rx="12" fill="#111827" stroke="#1f2937"/>
  <text x="60" y="532" fill="#f8fafc" font-size="14" font-weight="700">Open Positions</text>
  <g font-size="11" fill="#94a3b8">
    <text x="60" y="556">SYMBOL</text>
    <text x="200" y="556">QTY</text>
    <text x="300" y="556">AVG</text>
    <text x="420" y="556">LTP</text>
    <text x="540" y="556">P&amp;L</text>
    <text x="700" y="556">% RET</text>
    <text x="840" y="556">AI SIGNAL</text>
    <text x="1020" y="556">ACTION</text>
  </g>
  <g font-size="13">
    <rect x="56" y="568" width="1088" height="36" rx="4" fill="#0b1120"/>
    <text x="60" y="590" fill="#f8fafc" font-weight="700">RELIANCE</text>
    <text x="200" y="590" fill="#cbd5e1">25</text>
    <text x="300" y="590" fill="#cbd5e1">2,864.50</text>
    <text x="420" y="590" fill="#cbd5e1">2,948.20</text>
    <text x="540" y="590" fill="#10b981">+ 2,092.50</text>
    <text x="700" y="590" fill="#10b981">+2.92%</text>
    <rect x="836" y="574" width="98" height="22" rx="11" fill="#064e3b"/>
    <text x="850" y="590" fill="#6ee7b7" font-weight="700" font-size="11">HOLD</text>
    <text x="1020" y="590" fill="#38bdf8" font-weight="700">Exit</text>

    <rect x="56" y="608" width="1088" height="36" rx="4" fill="#0f172a"/>
    <text x="60" y="630" fill="#f8fafc" font-weight="700">TCS</text>
    <text x="200" y="630" fill="#cbd5e1">10</text>
    <text x="300" y="630" fill="#cbd5e1">4,120.00</text>
    <text x="420" y="630" fill="#cbd5e1">4,286.10</text>
    <text x="540" y="630" fill="#10b981">+ 1,661.00</text>
    <text x="700" y="630" fill="#10b981">+4.03%</text>
    <rect x="836" y="614" width="98" height="22" rx="11" fill="#064e3b"/>
    <text x="850" y="630" fill="#6ee7b7" font-weight="700" font-size="11">STRONG BUY</text>
    <text x="1020" y="630" fill="#38bdf8" font-weight="700">Add</text>

    <rect x="56" y="648" width="1088" height="36" rx="4" fill="#0b1120"/>
    <text x="60" y="670" fill="#f8fafc" font-weight="700">HDFCBANK</text>
    <text x="200" y="670" fill="#cbd5e1">15</text>
    <text x="300" y="670" fill="#cbd5e1">1,702.00</text>
    <text x="420" y="670" fill="#cbd5e1">1,684.40</text>
    <text x="540" y="670" fill="#ef4444">- 264.00</text>
    <text x="700" y="670" fill="#ef4444">-1.03%</text>
    <rect x="836" y="654" width="98" height="22" rx="11" fill="#78350f"/>
    <text x="850" y="670" fill="#fcd34d" font-weight="700" font-size="11">WATCH</text>
    <text x="1020" y="670" fill="#38bdf8" font-weight="700">Exit</text>
  </g>
</svg>
